<svg width="107" height="107" viewBox="0 0 107 107" fill="none" xmlns="http://www.w3.org/2000/svg">
<g clip-path="url(#clip0_289_12)">
<path d="M17.8336 49.042C18.9699 49.0432 20.0629 49.4784 20.8892 50.2584C21.7155 51.0385 22.2127 52.1047 22.2793 53.239C22.3459 54.3734 21.9768 55.4904 21.2475 56.3618C20.5182 57.2332 19.4836 57.7932 18.3552 57.9274L17.8336 57.9587H13.3753C12.2389 57.9574 11.146 57.5223 10.3197 56.7422C9.49338 55.9621 8.99614 54.896 8.92954 53.7616C8.86295 52.6272 9.23203 51.5102 9.96137 50.6388C10.6907 49.7674 11.7253 49.2074 12.8536 49.0732L13.3753 49.042H17.8336ZM53.5003 8.91699C54.5923 8.91714 55.6462 9.31805 56.4623 10.0437C57.2783 10.7693 57.7996 11.7692 57.9274 12.8537L57.9586 13.3753V17.8337C57.9573 18.97 57.5222 20.063 56.7422 20.8893C55.9621 21.7155 54.8959 22.2128 53.7616 22.2794C52.6272 22.346 51.5102 21.9769 50.6388 21.2476C49.7674 20.5182 49.2074 19.4837 49.0731 18.3553L49.0419 17.8337V13.3753C49.0419 12.1929 49.5117 11.0589 50.3478 10.2228C51.1839 9.38671 52.3178 8.91699 53.5003 8.91699ZM93.6253 49.042C94.7616 49.0432 95.8546 49.4784 96.6809 50.2584C97.5072 51.0385 98.0044 52.1047 98.071 53.239C98.1376 54.3734 97.7685 55.4904 97.0392 56.3618C96.3098 57.2332 95.2753 57.7932 94.1469 57.9274L93.6253 57.9587H89.1669C88.0306 57.9574 86.9376 57.5223 86.1113 56.7422C85.285 55.9621 84.7878 54.896 84.7212 53.7616C84.6546 52.6272 85.0237 51.5102 85.753 50.6388C86.4824 49.7674 87.5169 49.2074 88.6453 49.0732L89.1669 49.042H93.6253ZM21.8149 21.815C22.5826 21.0473 23.604 20.5862 24.6875 20.5181C25.771 20.4499 26.8421 20.7795 27.6999 21.4449L28.119 21.815L31.2398 24.9358C32.0394 25.7381 32.5036 26.8147 32.5382 27.9469C32.5728 29.0791 32.1751 30.182 31.426 31.0316C30.6768 31.8812 29.6324 32.4138 28.5047 32.5212C27.3771 32.6286 26.2509 32.3028 25.3548 31.6099L24.9357 31.2399L21.8149 28.119C20.9791 27.283 20.5096 26.1492 20.5096 24.967C20.5096 23.7848 20.9791 22.651 21.8149 21.815ZM78.8816 21.815C79.6839 21.0154 80.7605 20.5511 81.8926 20.5166C83.0248 20.482 84.1277 20.8797 84.9773 21.6288C85.8269 22.378 86.3596 23.4224 86.467 24.55C86.5744 25.6776 86.2486 26.8039 85.5557 27.6999L85.1856 28.119L82.0648 31.2399C81.2625 32.0395 80.1859 32.5037 79.0537 32.5383C77.9215 32.5728 76.8186 32.1752 75.969 31.426C75.1194 30.6769 74.5868 29.6324 74.4794 28.5048C74.372 27.3772 74.6978 26.251 75.3907 25.3549L75.7607 24.9358L78.8816 21.815ZM62.4169 80.2503C63.5994 80.2503 64.7334 80.72 65.5695 81.5561C66.4056 82.3922 66.8753 83.5262 66.8753 84.7087C66.8753 88.2559 65.4661 91.6579 62.9578 94.1662C60.4495 96.6745 57.0475 98.0837 53.5003 98.0837C49.953 98.0837 46.551 96.6745 44.0427 94.1662C41.5344 91.6579 40.1253 88.2559 40.1253 84.7087C40.1254 83.6167 40.5263 82.5627 41.252 81.7467C41.9776 80.9306 42.9775 80.4093 44.062 80.2815L44.5836 80.2503H62.4169ZM53.5003 26.7503C59.1146 26.7503 64.5867 28.5168 69.1413 31.7996C73.6959 35.0824 77.1021 39.715 78.8776 45.0412C80.653 50.3675 80.7075 56.1173 79.0335 61.4763C77.3595 66.8353 74.0418 71.5317 69.5503 74.9003C68.9358 75.3619 68.2124 75.6567 67.4504 75.7563L66.8753 75.792H40.1253C39.1606 75.792 38.222 75.4791 37.4503 74.9003C32.9588 71.5317 29.6411 66.8353 27.967 61.4763C26.293 56.1173 26.3476 50.3675 28.123 45.0412C29.8984 39.715 33.3047 35.0824 37.8593 31.7996C42.4139 28.5168 47.8859 26.7503 53.5003 26.7503Z" fill="black"/>
</g>
<defs>
<clipPath id="clip0_289_12">
<rect width="107" height="107" fill="white"/>
</clipPath>
</defs>
</svg>
